<?xml version="1.0" encoding="utf-8"?>
<!-- Generator: Adobe Illustrator 17.1.0, SVG Export Plug-In . SVG Version: 6.00 Build 0)  -->
<!DOCTYPE svg PUBLIC "-//W3C//DTD SVG 1.1//EN" "http://www.w3.org/Graphics/SVG/1.1/DTD/svg11.dtd">
<svg version="1.1" id="Layer_1" xmlns="http://www.w3.org/2000/svg" xmlns:xlink="http://www.w3.org/1999/xlink" x="0px" y="0px"
	 viewBox="0 0 233.1 60" enable-background="new 0 0 233.1 60" xml:space="preserve">
<g>
	<path fill="#FFC400" d="M13.9,2.5v8.6c0,1.4-1.3,2.5-2.7,2.5H2.6c-1.4,0-2.6-1.1-2.6-2.5V0h11.2C12.6,0,13.9,1.1,13.9,2.5z"/>
	<path fill="#FFC400" d="M13.9,26.7c0,1.4-1.2,2.6-2.6,2.6H2.6c-1.4,0-2.6-1.2-2.6-2.6v-8.8c0-1.4,1.2-2.6,2.6-2.6h8.8
		c1.4,0,2.6,1.2,2.6,2.6V26.7z"/>
	<path fill="#FFC400" d="M13.9,42c0,1.4-1.2,2.6-2.6,2.6H2.6C1.2,44.6,0,43.5,0,42v-8.8c0-1.4,1.2-2.6,2.6-2.6h8.8
		c1.4,0,2.6,1.2,2.6,2.6V42z"/>
	<path fill="#FFC400" d="M13.9,48.7v8.6c0,1.4-1.3,2.6-2.7,2.6H0V48.7C0,47.3,1.2,46,2.6,46h8.6C12.6,46,13.9,47.3,13.9,48.7z"/>
	<path fill="#FFC400" d="M29.3,2.5V5h-7.1v8.6H18c-1.4,0-2.7-1.1-2.7-2.5V2.5C15.3,1.1,16.6,0,18,0h8.6C28,0,29.3,1.1,29.3,2.5z"/>
	<path fill="#FFC400" d="M29.3,23.9v2.6c0,1.4-1.2,2.4-2.7,2.4H18c-1.4,0-2.7-1-2.7-2.4v-8.6c0-1.4,1.3-2.6,2.7-2.6h4.1v8.6H29.3z"
		/>
	<path fill="#FFC400" d="M29.3,33.3V36h-7.1v8.6H18c-1.4,0-2.7-1.3-2.7-2.7v-8.6c0-1.4,1.3-2.6,2.7-2.6h8.6
		C28,30.7,29.3,31.9,29.3,33.3z"/>
	<path fill="#FFC400" d="M29.3,54.9v2.4c0,1.4-1.2,2.6-2.7,2.6H18c-1.4,0-2.7-1.2-2.7-2.6v-8.6c0-1.4,1.3-2.7,2.7-2.7h4.1v8.9H29.3z
		"/>
	<path fill="#FFC400" d="M44.6,2.5v8.6c0,1.4-1.2,2.5-2.6,2.5h-4.2v-4L31,5.3V2.5C31,1.1,32,0,33.4,0H42C43.4,0,44.6,1.1,44.6,2.5z"
		/>
	<path fill="#FFC400" d="M44.6,17.9v8.6c0,1.4-1.2,2.4-2.6,2.4h-8.6c-1.4,0-2.4-1-2.4-2.4v-2.7l6.8-4.3v-4.1H42
		C43.4,15.3,44.6,16.5,44.6,17.9z"/>
	<path fill="#FFC400" d="M44.6,33.3v8.6c0,1.4-1.2,2.7-2.6,2.7h-4.2v-4.2L31,36.1v-2.7c0-1.4,1-2.6,2.4-2.6H42
		C43.4,30.7,44.6,31.9,44.6,33.3z"/>
	<path fill="#FFC400" d="M44.6,48.7v8.6c0,1.4-1.2,2.6-2.6,2.6h-8.6c-1.4,0-2.4-1.2-2.4-2.6v-2.7l6.8-4.3V46H42
		C43.4,46,44.6,47.3,44.6,48.7z"/>
	<path fill="#FFC400" d="M60,5.1v6c0,1.4-1.1,2.5-2.5,2.5h-8.6c-1.4,0-2.5-1.1-2.5-2.5V2.5c0-1.4,1-2.5,2.5-2.5h0.9L60,5.1z"/>
	<path fill="#FFC400" d="M60,17.9v6l-10.2,5h-0.9c-1.4,0-2.5-1-2.5-2.4v-8.6c0-1.4,1-2.6,2.5-2.6h8.6C58.8,15.3,60,16.5,60,17.9z"/>
	<path fill="#FFC400" d="M60,35.9v6c0,1.4-1.1,2.7-2.5,2.7h-8.6c-1.4,0-2.5-1.3-2.5-2.7v-8.6c0-1.4,1-2.6,2.5-2.6h0.9L60,35.9z"/>
	<path fill="#FFC400" d="M60,48.7v6l-10.2,5.2h-0.9c-1.4,0-2.5-1.2-2.5-2.6v-8.6c0-1.4,1-2.7,2.5-2.7h8.6C58.8,46,60,47.3,60,48.7z"
		/>
	<path fill="#FFC400" d="M108.9,26c0,1.7-0.2,3.1-0.7,4.1c-0.5,1.1-1.2,1.9-2.2,2.5c-1,0.6-2.4,1-4,1.2c-1.7,0.2-3.7,0.3-6.1,0.3
		H67.9V0.1h27.8c2.4,0,4.4,0.1,6.1,0.3c1.7,0.2,3,0.6,4,1.2c1,0.6,1.7,1.4,2.1,2.5c0.4,1.1,0.6,2.4,0.6,4.1v4.2
		c0,1.4-0.4,2.4-1.1,3.2c-0.7,0.7-1.6,1.2-2.6,1.5c1,0.2,1.9,0.7,2.7,1.5c0.8,0.8,1.2,1.9,1.2,3.5V26z M81,8.7v4.4h12.8
		c0.9,0,1.5-0.2,1.8-0.6c0.3-0.4,0.4-1,0.4-1.8c0-0.8-0.2-1.3-0.5-1.7c-0.3-0.3-0.9-0.5-1.8-0.5H81z M81,21v4.4h13
		c0.8,0,1.3-0.2,1.6-0.5c0.3-0.3,0.4-0.9,0.4-1.7c0-0.9-0.2-1.5-0.5-1.8c-0.3-0.3-0.8-0.4-1.5-0.4H81z"/>
	<polygon fill="#FFC400" points="113.4,34.1 113.4,0.1 153.9,0.1 153.9,8.7 126.5,8.7 126.5,13 139.9,13 139.9,21.1 126.5,21.1 
		126.5,25.5 153.9,25.5 153.9,34.1 	"/>
	<path fill="#FFC400" d="M186.3,34.1l-1.9-5h-12.4l-1.9,5h-14.3l13.8-34.1h16.6l13.8,34.1H186.3z M178.3,10l-3.7,10.9h7.3L178.3,10z
		"/>
	<polygon fill="#FFC400" points="207.7,34.1 207.7,8.7 195.3,8.7 195.3,0.1 233.1,0.1 233.1,8.7 220.7,8.7 220.7,34.1 	"/>
	<polygon fill="#FFC400" points="86.3,60 86.3,52.7 83.1,60 77.2,60 74,52.7 74,60 67.9,60 67.9,42.8 75.3,42.8 80.4,53.5 
		85.5,42.8 92.4,42.8 92.4,60 	"/>
	<path fill="#FFC400" d="M109.3,60l-0.9-2.5h-6.3l-1,2.5h-7.2l7-17.2h8.4l7,17.2H109.3z M105.2,47.8l-1.8,5.5h3.7L105.2,47.8z"/>
	<path fill="#FFC400" d="M132,60v-5.2c0-0.8-0.6-1.2-1.9-1.2h-5.9V60h-6.6V42.8h6.6v8.4l7.5-8.4h7.2l-6.2,6.8h0.9
		c1.8,0,3.1,0.3,3.8,0.9c0.7,0.6,1.1,1.6,1.1,2.8V60H132z"/>
	<polygon fill="#FFC400" points="140.9,60 140.9,42.8 161.3,42.8 161.3,47.2 147.5,47.2 147.5,49.3 154.2,49.3 154.2,53.4 
		147.5,53.4 147.5,55.6 161.3,55.6 161.3,60 	"/>
	<path fill="#FFC400" d="M177.5,60v-4.7c0-0.4-0.1-0.7-0.3-0.9c-0.2-0.2-0.6-0.3-1.3-0.3h-5.9V60h-6.6V42.8h14.6
		c1.2,0,2.2,0.1,3,0.2c0.8,0.1,1.4,0.4,1.8,0.7c0.4,0.3,0.7,0.7,0.9,1.3c0.2,0.5,0.2,1.2,0.2,2v2.7c0,0.8-0.2,1.4-0.5,1.8
		c-0.3,0.4-0.8,0.7-1.3,0.9c0.5,0.1,1,0.4,1.4,0.8c0.4,0.4,0.6,1,0.6,1.7V60H177.5z M177.5,48.2c0-0.3-0.1-0.6-0.2-0.8
		c-0.1-0.2-0.5-0.3-1-0.3h-6.3v3h6.3c0.6,0,0.9-0.1,1.1-0.3c0.1-0.2,0.2-0.5,0.2-0.9V48.2z"/>
	<rect x="187.4" y="56.1" fill="#FFC400" width="6.6" height="3.9"/>
	<polygon fill="#FFC400" points="197.2,60 197.2,47.2 191,47.2 191,42.8 210,42.8 210,47.2 203.8,47.2 203.8,60 	"/>
	<polygon fill="#FFC400" points="217.7,60 210.7,42.8 218.1,42.8 222.1,53.7 226.2,42.8 233.1,42.8 226,60 	"/>
</g>
</svg>
